<svg width="17" height="18" viewBox="0 0 17 18" fill="none" xmlns="http://www.w3.org/2000/svg">
<path d="M13.6751 9.49074V6.5473C13.6894 4.30323 12.1524 2.81482 10.8318 2.22214C10.4591 2.05524 10.0668 1.9312 9.66675 1.83662V1.63633C9.66675 0.734059 8.91908 0 8.00007 0C7.08106 0 6.33339 0.734059 6.33339 1.63633V1.86738C5.97372 1.96 5.62038 2.07323 5.28471 2.22509C3.82537 2.88551 2.34669 4.47734 2.33336 6.54534V9.49074C2.33336 11.5813 1.58135 13.3751 0.0983415 14.8222C0.0100075 14.9086 -0.0219928 15.0359 0.0153409 15.1528C0.0526745 15.2693 0.153675 15.356 0.276676 15.377L3.44037 15.9133C4.03704 16.0145 4.57871 16.0953 5.08838 16.1614C5.67005 17.2813 6.81239 18 8.06107 18C9.31008 18 10.4528 17.2807 11.0341 16.1604C11.5414 16.0947 12.0804 16.0141 12.6741 15.9133L15.8375 15.377C15.9605 15.3563 16.0611 15.2696 16.0988 15.1528C16.1365 15.0363 16.1045 14.9086 16.0158 14.8222C14.4625 13.3067 13.6751 11.5129 13.6751 9.49074ZM7.00006 1.63633C7.00006 1.09503 7.44873 0.654534 8.00007 0.654534C8.5514 0.654534 9.00008 1.09503 9.00008 1.63633V1.6995C8.33574 1.60721 7.65873 1.61244 7.00006 1.71586V1.63633ZM10.2018 16.258C9.69541 16.9328 8.90574 17.3451 8.06073 17.3451C7.21606 17.3451 6.42672 16.9328 5.92039 16.2586C6.05105 16.2717 6.17805 16.2825 6.30472 16.293C6.36706 16.2982 6.43106 16.3048 6.49272 16.3097C6.53839 16.3133 6.58239 16.3156 6.62739 16.3185C7.59606 16.3879 8.4884 16.3882 9.45608 16.3205C9.51275 16.3165 9.56808 16.3136 9.62541 16.3093C9.69675 16.3038 9.77075 16.2966 9.84341 16.29C9.95775 16.2802 10.0714 16.2707 10.1888 16.2589C10.1934 16.2586 10.1974 16.2583 10.2018 16.258Z" fill="#FF9900"/>
</svg>
